<svg width="71" height="70" viewBox="0 0 71 70" fill="none" xmlns="http://www.w3.org/2000/svg">
<path d="M33.1667 31.9502V66.7687L30.8333 67.9305L0.5 52.8631V15.1037L30.8333 0L61.1667 15.1037V42.1162H56.5V20.332L33.1667 31.9502ZM30.8333 5.22822L22.0469 9.58506L44.6875 20.9855L53.6198 16.556L30.8333 5.22822ZM28.5 61.5768V31.9502L5.16667 20.332V49.9585L28.5 61.5768ZM8.04687 16.556L30.8333 27.8838L39.5104 23.5996L16.8333 12.1992L8.04687 16.556ZM47.1667 60.7054V56.0581H70.5V60.7054H47.1667ZM47.1667 46.7635H70.5V51.4108H47.1667V46.7635ZM37.8333 70V65.3527H42.5V70H37.8333ZM37.8333 51.4108V46.7635H42.5V51.4108H37.8333ZM37.8333 60.7054V56.0581H42.5V60.7054H37.8333ZM47.1667 70V65.3527H70.5V70H47.1667Z" fill="#699BF7"/>
</svg>
