<svg width="71" height="42" viewBox="0 0 71 42" fill="none" xmlns="http://www.w3.org/2000/svg">
<path d="M35.5 0.583374C32.7926 0.583374 30.1961 1.65889 28.2816 3.57333C26.3672 5.48776 25.2917 8.08429 25.2917 10.7917C25.2917 13.4991 26.3672 16.0957 28.2816 18.0101C30.1961 19.9245 32.7926 21 35.5 21C38.2074 21 40.8039 19.9245 42.7184 18.0101C44.6328 16.0957 45.7083 13.4991 45.7083 10.7917C45.7083 8.08429 44.6328 5.48776 42.7184 3.57333C40.8039 1.65889 38.2074 0.583374 35.5 0.583374ZM35.5 6.41671C36.6603 6.41671 37.7731 6.87764 38.5936 7.69811C39.4141 8.51859 39.875 9.63139 39.875 10.7917C39.875 11.952 39.4141 13.0648 38.5936 13.8853C37.7731 14.7058 36.6603 15.1667 35.5 15.1667C34.3397 15.1667 33.2269 14.7058 32.4064 13.8853C31.5859 13.0648 31.125 11.952 31.125 10.7917C31.125 9.63139 31.5859 8.51859 32.4064 7.69811C33.2269 6.87764 34.3397 6.41671 35.5 6.41671ZM16.5417 9.33337C14.6078 9.33337 12.7531 10.1016 11.3857 11.4691C10.0182 12.8365 9.25 14.6912 9.25 16.625C9.25 19.3667 10.7958 21.7292 13.0125 22.9834C14.0625 23.5667 15.2583 23.9167 16.5417 23.9167C17.825 23.9167 19.0208 23.5667 20.0708 22.9834C21.15 22.3709 22.0542 21.4959 22.725 20.4459C20.6002 17.6767 19.4516 14.2822 19.4583 10.7917V9.97504C18.5833 9.56671 17.5917 9.33337 16.5417 9.33337ZM54.4583 9.33337C53.4083 9.33337 52.4167 9.56671 51.5417 9.97504V10.7917C51.5417 14.2917 50.4042 17.675 48.275 20.4459C48.625 21 49.0042 21.4375 49.4417 21.875C50.7867 23.1791 52.5849 23.9109 54.4583 23.9167C55.7417 23.9167 56.9375 23.5667 57.9875 22.9834C60.2042 21.7292 61.75 19.3667 61.75 16.625C61.75 14.6912 60.9818 12.8365 59.6143 11.4691C58.2469 10.1016 56.3922 9.33337 54.4583 9.33337ZM35.5 26.8334C28.675 26.8334 15.0833 30.2459 15.0833 37.0417V41.4167H55.9167V37.0417C55.9167 30.2459 42.325 26.8334 35.5 26.8334ZM14.2375 28.4375C8.60833 29.1084 0.5 31.9667 0.5 37.0417V41.4167H9.25V35.7875C9.25 32.8417 11.2625 30.3917 14.2375 28.4375ZM56.7625 28.4375C59.7375 30.3917 61.75 32.8417 61.75 35.7875V41.4167H70.5V37.0417C70.5 31.9667 62.3917 29.1084 56.7625 28.4375ZM35.5 32.6667C39.9625 32.6667 44.95 34.125 47.8375 35.5834H23.1625C26.05 34.125 31.0375 32.6667 35.5 32.6667Z" fill="#699BF7"/>
</svg>
