<svg width="66" height="70" viewBox="0 0 66 70" fill="none" xmlns="http://www.w3.org/2000/svg">
<path d="M63 34.7C62.9531 39.9056 61.4662 44.9966 58.704 49.4091C55.9417 53.8216 52.012 57.3835 47.35 59.7L33 67.5L18.65 60C13.9426 57.6606 9.98281 54.052 7.21747 49.5816C4.45213 45.1111 2.99137 39.9566 3.00004 34.7V7.5C3.00004 6.17392 3.52682 4.90215 4.4645 3.96447C5.40219 3.02678 6.67396 2.5 8.00004 2.5H58C59.3261 2.5 60.5979 3.02678 61.5356 3.96447C62.4732 4.90215 63 6.17392 63 7.5V34.7Z" stroke="#699BF7" stroke-width="5" stroke-linecap="round" stroke-linejoin="round"/>
<path d="M25.5 40C25.5 41.9891 26.2902 43.8968 27.6967 45.3033C29.1032 46.7098 31.0109 47.5 33 47.5M33 47.5C34.004 47.5747 35.0124 47.4319 35.9562 47.0814C36.9 46.7309 37.7571 46.181 38.469 45.469C39.181 44.7571 39.7309 43.9 40.0814 42.9562C40.4319 42.0124 40.5747 41.004 40.5 40C40.5 32.5 25.5 32.5 25.5 25C25.4253 23.996 25.5681 22.9876 25.9186 22.0438C26.2691 21.1 26.819 20.2429 27.531 19.531C28.2429 18.819 29.1 18.2691 30.0438 17.9186C30.9876 17.5681 31.996 17.4253 33 17.5M33 47.5V52.5M33 17.5C34.9891 17.5 36.8968 18.2902 38.3033 19.6967C39.7098 21.1032 40.5 23.0109 40.5 25M33 17.5V12.5" stroke="#699BF7" stroke-width="5" stroke-linecap="round" stroke-linejoin="round"/>
</svg>
