<svg width="62" height="46" viewBox="0 0 62 46" fill="none" xmlns="http://www.w3.org/2000/svg">
<path d="M12.0833 37.5833C12.0833 39.1304 12.6978 40.6142 13.7918 41.7081C14.8858 42.8021 16.3695 43.4167 17.9166 43.4167C19.4637 43.4167 20.9474 42.8021 22.0414 41.7081C23.1353 40.6142 23.7499 39.1304 23.7499 37.5833C23.7499 36.0362 23.1353 34.5525 22.0414 33.4585C20.9474 32.3646 19.4637 31.75 17.9166 31.75C16.3695 31.75 14.8858 32.3646 13.7918 33.4585C12.6978 34.5525 12.0833 36.0362 12.0833 37.5833ZM41.2499 37.5833C41.2499 39.1304 41.8645 40.6142 42.9585 41.7081C44.0524 42.8021 45.5362 43.4167 47.0833 43.4167C48.6303 43.4167 50.1141 42.8021 51.208 41.7081C52.302 40.6142 52.9166 39.1304 52.9166 37.5833C52.9166 36.0362 52.302 34.5525 51.208 33.4585C50.1141 32.3646 48.6303 31.75 47.0833 31.75C45.5362 31.75 44.0524 32.3646 42.9585 33.4585C41.8645 34.5525 41.2499 36.0362 41.2499 37.5833Z" stroke="#699BF7" stroke-width="5" stroke-linecap="round" stroke-linejoin="round"/>
<path d="M12.0833 37.5833H6.24992V25.9166M3.33325 2.58325H35.4166V37.5833M23.7499 37.5833H41.2499M52.9166 37.5833H58.7499V20.0833M58.7499 20.0833H35.4166M58.7499 20.0833L49.9999 5.49992H35.4166M6.24992 14.2499H17.9166" stroke="#699BF7" stroke-width="5" stroke-linecap="round" stroke-linejoin="round"/>
</svg>
