<svg width="65" height="60" viewBox="0 0 65 60" fill="none" xmlns="http://www.w3.org/2000/svg">
<path d="M38.3333 49.4167C49.332 49.4167 54.8328 49.4167 58.2482 45.9983C61.6666 42.5829 61.6666 37.0821 61.6666 26.0833C61.6666 15.0846 61.6666 9.58375 58.2482 6.16833C54.8328 2.75 49.332 2.75 38.3333 2.75H26.6666C15.6678 2.75 10.167 2.75 6.75158 6.16833C3.33325 9.58375 3.33325 15.0846 3.33325 26.0833C3.33325 37.0821 3.33325 42.5829 6.75158 45.9983C8.65617 47.9058 11.2083 48.7487 14.9999 49.1192" stroke="#699BF7" stroke-width="5" stroke-linecap="round" stroke-linejoin="round"/>
<path d="M32.5 26.0833V26.1124M20.8333 26.0833V26.1124M44.1666 26.0833V26.1124M38.3333 49.4166C34.7283 49.4166 30.7558 50.8749 27.1304 52.7562C21.3029 55.7808 18.3891 57.2945 16.9541 56.3291C15.5191 55.3666 15.7904 52.377 16.3358 46.4008L16.4583 45.0416" stroke="#699BF7" stroke-width="5" stroke-linecap="round"/>
</svg>
