<svg width="70" height="70" viewBox="0 0 70 70" fill="none" xmlns="http://www.w3.org/2000/svg">
<path d="M35.0001 64.1666C28.2431 62.4652 22.6645 58.588 18.2642 52.5349C13.864 46.4819 11.6648 39.7619 11.6667 32.3749V14.5833L35.0001 5.83325L58.3334 14.5833V32.3749C58.3334 39.7638 56.1333 46.4848 51.733 52.5378C47.3327 58.5909 41.7551 62.4671 35.0001 64.1666ZM35.0001 58.0416C39.7154 56.5833 43.6529 53.7026 46.8126 49.3995C49.9723 45.0965 51.8195 40.2966 52.3542 34.9999H35.0001V12.0312L17.5001 18.5937V33.6874C17.5001 34.0277 17.5487 34.4652 17.6459 34.9999H35.0001V58.0416Z" fill="#699BF7"/>
</svg>
